# xmcd
#
# Track frame offsets: 
#        150
#        14751
#        26225
#        40177
#        58730
#        74067
#        90239
#        104038
#        117893
#        132560
#        146865
#        160435
#
# Disc length: 2309 seconds
#
# Revision: 0
# Processed by: cddbd v1.5.2PL0 Copyright (c) Steve Scherf et al.
# Submitted via: ExactAudioCopyFreeDBPlugin 1.0
#
DISCID=bb09030c
DTITLE=Pierre Perret - La cage aux oiseaux
DYEAR=2011
DGENRE=Variété française
TTITLE0=Le cul de Lucette
TTITLE1=Ma femme
TTITLE2=Le représentant en confitures
TTITLE3=Jeanine
TTITLE4=Le gros béguin
TTITLE5=La grande ourse
TTITLE6=Plein la poire
TTITLE7=Le temps des puces
TTITLE8=Faut pas pousser grand-mère dans le concasseur
TTITLE9=La cage aux oiseaux
TTITLE10=Olga
TTITLE11=Dépêche-toi mon amour
EXTD=Intégrale 1957 - 2011
EXTT0=
EXTT1=
EXTT2=
EXTT3=
EXTT4=
EXTT5=
EXTT6=
EXTT7=
EXTT8=
EXTT9=
EXTT10=
EXTT11=
PLAYORDER=
